<svg xmlns="http://www.w3.org/2000/svg" data-name="Layer 1" viewBox="0 0 100 125" x="0px" y="0px"><title>01-01</title><path d="M95,40.88a8,8,0,0,0-8-8H84.74a8,8,0,0,0-7.74-6h-.5a8,8,0,0,0-8,8v5.38h-37V34.88a8,8,0,0,0-8-8H23a8,8,0,0,0-7.74,6H13a8,8,0,0,0-8,8V59.13a8,8,0,0,0,8,8h2.26a8,8,0,0,0,7.74,6h.5a8,8,0,0,0,8-8V59.75h37v5.37a8,8,0,0,0,8,8H77a8,8,0,0,0,7.74-6H87a8,8,0,0,0,8-8ZM9,59.13V40.88a4,4,0,0,1,4-4h2V63.13H13A4,4,0,0,1,9,59.13Zm18.5,6a4,4,0,0,1-4,4H23a4,4,0,0,1-4-4V34.88a4,4,0,0,1,4-4h.5a4,4,0,0,1,4,4Zm4-9.37V44.25h37v11.5ZM81,65.13a4,4,0,0,1-4,4h-.5a4,4,0,0,1-4-4V34.88a4,4,0,0,1,4-4H77a4,4,0,0,1,4,4Zm10-6a4,4,0,0,1-4,4H85V36.88h2a4,4,0,0,1,4,4Z"/></svg>