<svg xmlns="http://www.w3.org/2000/svg" xmlns:xlink="http://www.w3.org/1999/xlink" version="1.1" x="0px" y="0px" viewBox="0 0 212.17 296.23875000000004" style="enable-background:new 0 0 212.17 236.991;" xml:space="preserve"><g><circle cx="143.709" cy="22.5" r="22.5"/><path d="M51.323,47.691h0.267h0.082l0.178,0.006h13.186c-3.545-0.549-6.848-1.835-9.756-3.689c-3.168,0.427-6.415,0.94-9.758,1.57   c-1.178,0.222-2.24,0.697-3.154,1.35c4.936,0.75,8.723,0.766,8.784,0.766L51.323,47.691z"/><circle cx="68.95" cy="22.5" r="22.5"/><path d="M197.603,4.233c-4.117,1.6-6.157,6.237-4.556,10.357c2.284,5.871,3.124,10.57,3.12,14.223   c-0.062,5.479-1.643,8.712-4.188,11.612c-3.789,4.305-10.884,7.273-17.58,8.698c-6.65,1.476-12.617,1.573-13.624,1.566   c-0.178,0-0.271,0-0.271,0c-0.065,0-0.129,0.008-0.193,0.01h-34.797c-6.866-2.802-20.816-7.312-40.852-8.14   c-3.359,2.638-7.393,4.456-11.798,5.138h15.403c1.56,0,3.07,0.336,4.499,0.996c0.407,0.131,0.777,0.271,1.133,0.407l0.04,0.015   l0.084,0.032c0.998,0.417,1.937,0.915,2.951,1.571c1.73,1.131,3.404,2.536,5.13,4.305c1.89,1.942,3.702,4.188,5.428,6.718   c1.521,0.368,2.938,0.746,4.237,1.123c1.864,0.541,3.496,1.079,4.894,1.579v15.592c5.645,15.351,8.781,34.506,9.337,57.137   c0.072,2.937-1.005,5.729-3.033,7.857c-2.025,2.126-4.758,3.337-7.697,3.409c-0.067,0.002-0.168,0.002-0.269,0.002   c-0.247,0-0.49-0.021-0.733-0.036l-6.135,75.218c-0.555,6.808,4.514,12.773,11.318,13.328c6.805,0.554,12.773-4.51,13.328-11.318   l7.429-91.082h7.002l7.429,91.082c0.555,6.809,6.523,11.872,13.328,11.318c6.805-0.555,11.873-6.521,11.318-13.328l-8.53-104.591   V65.982c4.554-0.593,10.144-1.694,15.859-3.772c5.981-2.212,12.221-5.552,17.22-11.038c5.015-5.439,8.396-13.238,8.335-22.359   c-0.002-6.089-1.373-12.723-4.21-20.022C206.357,4.672,201.722,2.633,197.603,4.233z"/><path d="M123.001,137.246c-0.776-31.647-6.628-52.391-13.178-65.594c-3.278-6.6-6.716-11.295-9.865-14.535   c-1.586-1.623-3.084-2.882-4.612-3.878c-0.772-0.499-1.549-0.937-2.476-1.321c-0.374-0.143-0.761-0.292-1.203-0.424   c-1.027-0.504-2.178-0.795-3.399-0.795H51.783c-0.064-0.002-0.129-0.009-0.194-0.008c0,0-0.041,0-0.191,0   c-1.333,0.031-11.534-0.222-20.319-3.497c-4.405-1.61-8.326-3.914-10.889-6.767c-2.544-2.899-4.127-6.135-4.188-11.613   c-0.003-3.653,0.837-8.35,3.125-14.222c1.602-4.116-0.437-8.753-4.553-10.356C10.456,2.632,5.82,4.671,4.217,8.787   C1.373,16.09,0.003,22.726,0.001,28.814c-0.063,9.122,3.318,16.92,8.335,22.361c7.554,8.203,17.645,11.682,25.987,13.573   c2.726,0.599,5.291,1.011,7.581,1.296v52.986l-8.53,104.59c-0.555,6.808,4.514,12.773,11.318,13.328   c6.805,0.554,12.773-4.51,13.328-11.318l7.429-91.082h7.002l7.429,91.082c0.555,6.809,6.523,11.872,13.328,11.318   c6.805-0.555,11.873-6.521,11.318-13.328l-8.53-104.59V79.795c0.619,1.303,1.237,2.701,1.844,4.225   c4.455,11.062,8.547,28.197,9.164,53.616c0.108,4.351,3.668,7.806,7.996,7.806c0.066,0,0.132-0.001,0.197-0.002   C119.614,145.33,123.109,141.662,123.001,137.246z"/></g></svg>